<?xml version="1.0" encoding="UTF-8" standalone="no"?>
<svg
   xmlns:dc="http://purl.org/dc/elements/1.1/"
   xmlns:cc="http://creativecommons.org/ns#"
   xmlns:rdf="http://www.w3.org/1999/02/22-rdf-syntax-ns#"
   xmlns:svg="http://www.w3.org/2000/svg"
   xmlns="http://www.w3.org/2000/svg"
   xmlns:sodipodi="http://sodipodi.sourceforge.net/DTD/sodipodi-0.dtd"
   xmlns:inkscape="http://www.inkscape.org/namespaces/inkscape"
   width="264.583mm"
   height="198.437mm"
   viewBox="0 0 264.583 198.437"
   version="1.1"
   id="svg51">
  <linearGradient
     id="a"
     x1="113.655"
     x2="142.567"
     y1="29.439"
     y2="228.083"
     gradientUnits="userSpaceOnUse"
     gradientTransform="matrix(1.0335274,0,0,1.033526,0,-33.072833)">
    <stop
       offset="0"
       stop-color="#b7c1cb"
       id="stop2" />
    <stop
       offset="1"
       stop-color="#899198"
       id="stop4" />
  </linearGradient>
  <path
     fill="url(#a)"
     d="M 251.40759,198.437 H 13.175406 C 5.8993742,198.437 0,192.53763 0,185.26161 V 13.175389 C 0,5.8993665 5.8993742,0 13.175406,0 H 251.40759 c 7.27603,0 13.17542,5.8993665 13.17542,13.175389 V 185.26161 c 0,7.27602 -5.89939,13.17539 -13.17542,13.17539 z"
     id="path7" />
  <linearGradient
     id="b"
     x1="117.6"
     x2="140.249"
     y1="34.414"
     y2="188.255"
     gradientUnits="userSpaceOnUse"
     gradientTransform="matrix(1.0335274,0,0,1.033526,0,-33.072833)">
    <stop
       offset="0"
       stop-color="#edeff2"
       id="stop9" />
    <stop
       offset=".806"
       stop-color="#e6e8ea"
       id="stop11" />
  </linearGradient>
  <path
     fill="url(#b)"
     d="m 32.051749,128.212 a 0.71003329,0.71003236 0 0 1 0.558106,0.24495 l 16.481662,19.03651 a 0.71003329,0.71003236 0 0 0 1.094505,-0.0258 l 9.655211,-12.2876 a 0.71210034,0.71209942 0 0 0 0.14573,-0.34313 L 72.422364,42.674276 c 0.08785,-0.649053 0.93224,-0.843358 1.293975,-0.297656 l 17.093504,25.764771 a 0.6986645,0.69866359 0 0 1 0.09612,0.218075 l 8.252717,32.488884 a 0.71003329,0.71003236 0 0 0 0.751376,0.53227 l 23.524114,-2.116659 a 0.71106683,0.7110659 0 0 1 0.709,0.411342 l 9.85675,21.576927 a 0.70899977,0.70899885 0 0 0 0.80202,0.39687 l 4.5992,-1.0449 a 0.70899977,0.70899885 0 0 1 0.85576,0.56948 l 6.86779,39.1727 a 0.70899977,0.70899885 0 0 0 1.19166,0.38757 l 10.24845,-9.8867 a 0.70796626,0.70796534 0 0 1 0.39791,-0.19225 l 12.0716,-1.63503 a 0.71003329,0.71003236 0 0 0 0.60978,-0.62218 l 11.38844,-98.576682 c 0.0951,-0.819587 1.27537,-0.844391 1.4056,-0.02997 l 11.58171,72.819142 a 0.70899977,0.70899885 0 0 0 1.13067,0.45268 l 11.03911,-8.42737 a 0.70899977,0.70899885 0 0 1 0.9002,0.0321 l 20.17342,17.83039 a 0.71313388,0.71313296 0 0 0 0.31006,0.1602 l 18.47327,4.26329 V 22.778914 a 6.2425053,6.2424972 0 0 0 -6.24249,-6.242498 H 22.778943 a 6.2425053,6.2424972 0 0 0 -6.242505,6.242498 V 128.69466 Z"
     id="path14" />
  <clipPath
     id="c">
    <path
       d="M 233.96,208 H 22.04 A 6.04,6.04 0 0 1 16,201.96 V 54.04 A 6.04,6.04 0 0 1 22.04,48 h 211.92 a 6.04,6.04 0 0 1 6.04,6.04 v 147.92 a 6.04,6.04 0 0 1 -6.04,6.04 z"
       id="path16" />
  </clipPath>
  <linearGradient
     id="d"
     x1="137.8"
     x2="105.425"
     y1="232.204"
     y2="71.37"
     gradientUnits="userSpaceOnUse">
    <stop
       offset="0"
       stop-color="#c4e8fd"
       id="stop19" />
    <stop
       offset=".511"
       stop-color="#6cc2f4"
       id="stop21" />
    <stop
       offset="1"
       stop-color="#47a8e9"
       id="stop23" />
  </linearGradient>
  <path
     fill="url(#d)"
     d="m 222.127,160.356 a 0.685,0.685 0 0 1 -0.3,-0.155 l -19.519,-17.252 a 0.686,0.686 0 0 0 -0.871,-0.031 l -10.681,8.154 a 0.686,0.686 0 0 1 -1.094,-0.438 L 178.456,80.177 c -0.125,-0.788 -1.268,-0.764 -1.36,0.029 l -11.019,95.379 a 0.688,0.688 0 0 1 -0.59,0.602 l -11.68,1.582 a 0.695,0.695 0 0 0 -0.385,0.186 l -9.916,9.566 a 0.687,0.687 0 0 1 -1.153,-0.375 l -6.645,-37.902 a 0.686,0.686 0 0 0 -0.828,-0.551 l -4.45,1.011 a 0.686,0.686 0 0 1 -0.776,-0.384 l -9.537,-20.877 a 0.685,0.685 0 0 0 -0.686,-0.398 l -22.761,2.048 a 0.687,0.687 0 0 1 -0.727,-0.515 L 87.958,98.143 A 0.711,0.711 0 0 0 87.865,97.932 L 71.325,73.002 A 0.686,0.686 0 0 0 70.073,73.29 L 58.04,162.462 a 0.68,0.68 0 0 1 -0.141,0.332 l -9.342,11.889 a 0.687,0.687 0 0 1 -1.059,0.025 L 31.552,156.29 a 0.689,0.689 0 0 0 -0.54,-0.237 L 16,156.519 v 45.441 a 6.04,6.04 0 0 0 6.04,6.04 h 211.92 a 6.04,6.04 0 0 0 6.04,-6.04 v -37.48 z"
     clip-path="url(#c)"
     id="path26"
     transform="matrix(1.0335274,0,0,1.033526,0,-33.072833)" />
  <radialGradient
     id="e"
     cx="235.908"
     cy="196.375"
     r="82.792"
     gradientTransform="matrix(0.5167,-0.1029,0.2645,1.3285,-70.168,-26.64)"
     gradientUnits="userSpaceOnUse">
    <stop
       offset="0"
       stop-color="#c4e8fd"
       id="stop28" />
    <stop
       offset="1"
       stop-color="#c4e8fd"
       stop-opacity="0"
       id="stop30" />
  </radialGradient>
  <path
     fill="url(#e)"
     d="m 146.455,201.464 c 12.094,60.747 2.744,113.805 -20.884,118.508 C 101.943,324.676 72.986,279.244 60.892,218.498 48.798,157.752 58.148,104.693 81.776,99.989 c 23.628,-4.704 52.585,40.728 64.679,101.475 z"
     clip-path="url(#c)"
     id="path33"
     transform="matrix(1.0335274,0,0,1.033526,0,-33.072833)" />
  <radialGradient
     id="f"
     cx="438.152"
     cy="210.68"
     r="82.792"
     gradientTransform="matrix(0.6397,-0.1273,0.1537,0.7721,-125.327,109.131)"
     gradientUnits="userSpaceOnUse">
    <stop
       offset="0"
       stop-color="#c4e8fd"
       id="stop35" />
    <stop
       offset="1"
       stop-color="#c4e8fd"
       stop-opacity="0"
       id="stop37" />
  </radialGradient>
  <path
     fill="url(#f)"
     d="m 240.288,205.462 c 7.029,35.305 -10.984,68.646 -40.232,74.469 -29.249,5.823 -58.657,-18.077 -65.686,-53.383 -7.029,-35.305 10.984,-68.646 40.232,-74.469 29.248,-5.823 58.657,18.077 65.686,53.383 z"
     clip-path="url(#c)"
     id="path40"
     transform="matrix(1.0335274,0,0,1.033526,0,-33.072833)" />
  <radialGradient
     id="g"
     cx="151.885"
     cy="176.671"
     r="82.792"
     gradientTransform="matrix(0.7245,-0.1442,0.1283,0.6447,-94.256,132.673)"
     gradientUnits="userSpaceOnUse">
    <stop
       offset="0"
       stop-color="#c4e8fd"
       id="stop42" />
    <stop
       offset="1"
       stop-color="#c4e8fd"
       stop-opacity="0"
       id="stop44" />
  </radialGradient>
  <path
     fill="url(#g)"
     d="m 98.445,212.72 c 5.869,29.478 -16.229,58.721 -49.357,65.316 -33.128,6.595 -64.741,-11.955 -70.61,-41.432 -5.869,-29.478 16.229,-58.721 49.357,-65.316 33.128,-6.595 64.741,11.954 70.61,41.432 z"
     clip-path="url(#c)"
     id="path47"
     transform="matrix(1.0335274,0,0,1.033526,0,-33.072833)" />
  <path
     fill="none"
     stroke="#0079d8"
     stroke-miterlimit="10"
     stroke-width="2.06706"
     d="m 248.04657,136.92153 -18.47224,-4.2633 a 0.70796626,0.70796534 0 0 1 -0.31006,-0.1602 l -20.17342,-17.83039 a 0.70899977,0.70899885 0 0 0 -0.9002,-0.0321 l -11.03911,8.42737 a 0.70899977,0.70899885 0 0 1 -1.13068,-0.45269 L 184.43915,49.791126 c -0.12918,-0.814417 -1.3105,-0.789613 -1.40559,0.02997 L 171.64513,148.3978 a 0.71106683,0.7110659 0 0 1 -0.60979,0.62218 l -12.0716,1.63504 a 0.7183015,0.71830057 0 0 0 -0.39791,0.19224 l -10.24845,9.88671 a 0.71003329,0.71003236 0 0 1 -1.19166,-0.38758 l -6.86779,-39.1727 a 0.70899977,0.70899885 0 0 0 -0.85576,-0.56947 l -4.5992,1.0449 a 0.70899977,0.70899885 0 0 1 -0.80201,-0.39688 l -9.85675,-21.576928 a 0.70796626,0.70796534 0 0 0 -0.709,-0.411341 l -23.524122,2.116669 a 0.71003329,0.71003236 0 0 1 -0.75137,-0.53227 L 90.907001,68.359479 a 0.73483794,0.73483699 0 0 0 -0.09612,-0.218074 L 73.716339,42.376633 a 0.70899977,0.70899885 0 0 0 -1.293975,0.297656 L 59.985928,134.83587 a 0.70279861,0.7027977 0 0 1 -0.145727,0.34313 l -9.655213,12.28759 a 0.71003329,0.71003236 0 0 1 -1.094506,0.0258 L 32.609855,128.45695 A 0.71210034,0.71209942 0 0 0 32.051749,128.212 l -15.515311,0.48163"
     id="path49" />
</svg>
